<?xml version="1.0" standalone="no"?>
<!DOCTYPE svg PUBLIC "-//W3C//DTD SVG 20010904//EN"
 "http://www.w3.org/TR/2001/REC-SVG-20010904/DTD/svg10.dtd">
<svg version="1.0" xmlns="http://www.w3.org/2000/svg"
 width="230.000000pt" height="230.000000pt" viewBox="0 0 230.000000 230.000000"
 preserveAspectRatio="xMidYMid meet">
<metadata>
Created by potrace 1.16, written by Peter Selinger 2001-2019
</metadata>
<g transform="translate(0.000000,230.000000) scale(0.100000,-0.100000)"
fill="#000000" stroke="none">
<path d="M705 1929 c-226 -131 -410 -243 -410 -249 0 -9 466 -288 512 -307 6
-2 98 47 205 110 106 63 251 148 322 189 l129 75 53 -30 53 -31 -212 -121
-212 -122 -32 18 -33 18 -105 -62 c-57 -34 -105 -66 -105 -72 0 -11 244 -155
264 -155 22 0 841 476 841 489 0 13 -489 301 -512 301 -6 0 -152 -81 -323
-179 l-313 -179 -49 30 c-27 17 -48 31 -46 33 19 15 408 235 416 235 6 0 27
-7 45 -16 l34 -16 91 53 c51 30 92 59 92 65 0 13 -261 165 -281 163 -8 -1
-198 -108 -424 -240z"/>
<path d="M1618 1373 l-428 -246 0 -494 c0 -370 3 -493 12 -493 12 0 826 466
844 484 18 17 30 386 13 386 -7 0 -57 -25 -110 -56 l-98 -56 -3 -65 -3 -65
-212 -123 -213 -123 0 242 0 241 210 123 c115 67 212 122 215 122 3 0 5 -30 5
-66 0 -36 3 -64 8 -62 4 2 53 29 110 62 l102 58 0 92 c0 118 -11 286 -19 285
-3 0 -198 -111 -433 -246z"/>
<path d="M240 1112 l0 -497 416 -240 c229 -132 423 -241 430 -243 12 -3 14 42
14 261 l0 265 -30 25 c-16 14 -30 28 -30 30 0 3 14 10 30 17 l30 12 0 188 0
187 -424 247 c-233 135 -426 246 -430 246 -3 0 -6 -224 -6 -498z m628 -117 c9
-8 12 -31 10 -67 l-3 -56 -212 125 -213 125 0 58 0 59 203 -116 c111 -64 208
-121 215 -128z m-171 -265 l183 -105 0 -62 0 -61 -215 126 -215 127 0 58 0 59
33 -19 c17 -10 114 -66 214 -123z"/>
</g>
</svg>
