<?xml version="1.0" standalone="no"?>
<!DOCTYPE svg PUBLIC "-//W3C//DTD SVG 20010904//EN"
 "http://www.w3.org/TR/2001/REC-SVG-20010904/DTD/svg10.dtd">
<svg version="1.0" xmlns="http://www.w3.org/2000/svg"
 width="230.000000pt" height="230.000000pt" viewBox="0 0 230.000000 230.000000"
 preserveAspectRatio="xMidYMid meet">

<g transform="translate(0.000000,230.000000) scale(0.100000,-0.100000)"
fill="#000000" stroke="none">
<path d="M718 1921 c-224 -130 -407 -238 -407 -241 -1 -5 464 -275 492 -286
12 -4 58 18 135 63 64 39 209 123 320 188 l204 118 55 -29 c30 -16 59 -34 64
-40 7 -9 -54 -48 -212 -139 l-221 -128 -34 17 -35 16 -95 -56 c-52 -32 -91
-60 -87 -64 4 -5 59 -37 122 -74 l114 -65 57 32 c325 185 770 443 770 447 0 3
-112 69 -249 147 l-248 142 -314 -179 c-173 -99 -317 -180 -321 -180 -12 0
-118 64 -118 71 0 4 98 64 218 134 l217 126 40 -19 40 -19 88 52 88 52 -134
76 c-74 43 -136 77 -138 76 -2 -1 -187 -107 -411 -238z"/>
<path d="M1630 1360 l-415 -238 -3 -481 c-1 -264 -1 -481 1 -481 2 0 190 108
418 239 l414 239 3 176 c1 97 1 176 -2 176 -2 0 -43 -23 -90 -51 l-86 -50 0
-58 c0 -42 -5 -62 -16 -72 -39 -32 -440 -257 -447 -250 -4 4 -6 120 -5 257 l3
249 225 131 c124 73 228 130 233 127 4 -2 7 -31 7 -64 l0 -60 70 38 c121 66
111 43 108 240 l-3 171 -415 -238z"/>
<path d="M250 1108 l1 -483 122 -69 c67 -38 250 -143 406 -234 157 -90 291
-166 298 -169 10 -4 13 43 13 245 l0 250 -35 26 c-19 15 -35 31 -35 37 0 5 16
19 35 30 l35 21 0 172 0 171 -411 240 c-226 132 -415 242 -420 243 -5 2 -9
-205 -9 -480z m473 -8 l167 -95 0 -77 c0 -43 -2 -78 -4 -78 -3 0 -103 58 -223
129 l-218 128 -3 78 -3 77 59 -34 c32 -18 134 -76 225 -128z m-53 -336 l220
-127 0 -79 c0 -44 -3 -77 -7 -75 -5 2 -106 62 -225 132 l-218 127 0 74 c0 41
2 74 5 74 3 0 105 -57 225 -126z"/>
</g>
</svg>
